<mxfile host="drawio-plugin" modified="2024-11-06T16:54:43.818Z" agent="Mozilla/5.0 (Windows NT 10.0; Win64; x64) AppleWebKit/537.36 (KHTML, like Gecko) Chrome/122.0.0.0 Safari/537.36" etag="BDNM-uwus_QHB4FD4yEZ" version="22.1.22" type="embed">
  <diagram id="23iRSUPoRavnBvh4doch" name="Page-1">
    <mxGraphModel dx="1327" dy="781" grid="1" gridSize="10" guides="1" tooltips="1" connect="1" arrows="1" fold="1" page="1" pageScale="1" pageWidth="827" pageHeight="1169" math="0" shadow="0">
      <root>
        <mxCell id="0" />
        <mxCell id="1" parent="0" />
        <mxCell id="2" value="&lt;font size=&quot;3&quot;&gt;A&lt;/font&gt;" style="ellipse;whiteSpace=wrap;html=1;aspect=fixed;" vertex="1" parent="1">
          <mxGeometry x="50" y="90" width="70" height="70" as="geometry" />
        </mxCell>
        <mxCell id="8" value="&lt;font size=&quot;3&quot;&gt;H&lt;/font&gt;" style="ellipse;whiteSpace=wrap;html=1;aspect=fixed;" vertex="1" parent="1">
          <mxGeometry x="330" y="90" width="70" height="70" as="geometry" />
        </mxCell>
        <mxCell id="9" value="&lt;font size=&quot;3&quot;&gt;W&lt;/font&gt;" style="ellipse;whiteSpace=wrap;html=1;aspect=fixed;" vertex="1" parent="1">
          <mxGeometry x="50" y="300" width="70" height="70" as="geometry" />
        </mxCell>
        <mxCell id="10" value="&lt;font size=&quot;3&quot;&gt;C&lt;/font&gt;" style="ellipse;whiteSpace=wrap;html=1;aspect=fixed;" vertex="1" parent="1">
          <mxGeometry x="330" y="300" width="70" height="70" as="geometry" />
        </mxCell>
        <mxCell id="11" value="&lt;font size=&quot;3&quot;&gt;D&lt;/font&gt;" style="ellipse;whiteSpace=wrap;html=1;aspect=fixed;" vertex="1" parent="1">
          <mxGeometry x="330" y="500" width="70" height="70" as="geometry" />
        </mxCell>
        <mxCell id="12" value="" style="endArrow=none;html=1;rounded=0;entryX=0;entryY=0.5;entryDx=0;entryDy=0;exitX=1;exitY=0.5;exitDx=0;exitDy=0;" edge="1" parent="1" source="2" target="8">
          <mxGeometry width="50" height="50" relative="1" as="geometry">
            <mxPoint x="100" y="210" as="sourcePoint" />
            <mxPoint x="150" y="200" as="targetPoint" />
          </mxGeometry>
        </mxCell>
        <mxCell id="19" value="&lt;font style=&quot;font-size: 18px;&quot;&gt;100&lt;/font&gt;" style="edgeLabel;html=1;align=center;verticalAlign=middle;resizable=0;points=[];" vertex="1" connectable="0" parent="12">
          <mxGeometry x="-0.0238" y="1" relative="1" as="geometry">
            <mxPoint y="-14" as="offset" />
          </mxGeometry>
        </mxCell>
        <mxCell id="13" value="" style="endArrow=none;html=1;rounded=0;entryX=0.5;entryY=1;entryDx=0;entryDy=0;exitX=1;exitY=0.5;exitDx=0;exitDy=0;" edge="1" parent="1" source="9" target="8">
          <mxGeometry width="50" height="50" relative="1" as="geometry">
            <mxPoint x="130" y="250" as="sourcePoint" />
            <mxPoint x="340" y="250" as="targetPoint" />
          </mxGeometry>
        </mxCell>
        <mxCell id="14" value="" style="endArrow=none;html=1;rounded=0;entryX=0.5;entryY=0;entryDx=0;entryDy=0;exitX=0.5;exitY=1;exitDx=0;exitDy=0;" edge="1" parent="1" source="2" target="9">
          <mxGeometry width="50" height="50" relative="1" as="geometry">
            <mxPoint x="140" y="145" as="sourcePoint" />
            <mxPoint x="350" y="145" as="targetPoint" />
          </mxGeometry>
        </mxCell>
        <mxCell id="15" value="" style="endArrow=none;html=1;rounded=0;entryX=0;entryY=0.5;entryDx=0;entryDy=0;exitX=1;exitY=0.5;exitDx=0;exitDy=0;" edge="1" parent="1" source="9" target="10">
          <mxGeometry width="50" height="50" relative="1" as="geometry">
            <mxPoint x="150" y="155" as="sourcePoint" />
            <mxPoint x="360" y="155" as="targetPoint" />
          </mxGeometry>
        </mxCell>
        <mxCell id="17" value="" style="endArrow=none;html=1;rounded=0;entryX=0.5;entryY=0;entryDx=0;entryDy=0;exitX=0.5;exitY=1;exitDx=0;exitDy=0;" edge="1" parent="1" source="10" target="11">
          <mxGeometry width="50" height="50" relative="1" as="geometry">
            <mxPoint x="160" y="165" as="sourcePoint" />
            <mxPoint x="370" y="165" as="targetPoint" />
          </mxGeometry>
        </mxCell>
        <mxCell id="20" value="&lt;font style=&quot;font-size: 18px;&quot;&gt;800&lt;/font&gt;" style="edgeLabel;html=1;align=center;verticalAlign=middle;resizable=0;points=[];" vertex="1" connectable="0" parent="1">
          <mxGeometry x="233" y="120" as="geometry">
            <mxPoint x="-179" y="102" as="offset" />
          </mxGeometry>
        </mxCell>
        <mxCell id="21" value="&lt;font style=&quot;font-size: 18px;&quot;&gt;750&lt;/font&gt;" style="edgeLabel;html=1;align=center;verticalAlign=middle;resizable=0;points=[];" vertex="1" connectable="0" parent="1">
          <mxGeometry x="233" y="110" as="geometry">
            <mxPoint x="-8" y="110" as="offset" />
          </mxGeometry>
        </mxCell>
        <mxCell id="22" value="&lt;font style=&quot;font-size: 18px;&quot;&gt;400&lt;/font&gt;" style="edgeLabel;html=1;align=center;verticalAlign=middle;resizable=0;points=[];" vertex="1" connectable="0" parent="1">
          <mxGeometry x="240" y="125" as="geometry">
            <mxPoint x="-8" y="230" as="offset" />
          </mxGeometry>
        </mxCell>
        <mxCell id="23" value="&lt;font style=&quot;font-size: 18px;&quot;&gt;100&lt;/font&gt;" style="edgeLabel;html=1;align=center;verticalAlign=middle;resizable=0;points=[];" vertex="1" connectable="0" parent="1">
          <mxGeometry x="263" y="150" as="geometry">
            <mxPoint x="79" y="282" as="offset" />
          </mxGeometry>
        </mxCell>
      </root>
    </mxGraphModel>
  </diagram>
</mxfile>
